Coordinates
version=1
nRows=16
nColumns=28
inDegrees=yes

Units are S.I. units (second, meters, Newtons, ...)
Angles are in degrees.

endheader
time	pelvis_tilt	pelvis_list	pelvis_rotation	pelvis_tx	pelvis_ty	pelvis_tz	hip_flexion_r	hip_adduction_r	hip_rotation_r	knee_angle_r	ankle_angle_r	subtalar_angle_r	mtp_angle_r	hip_flexion_l	hip_adduction_l	hip_rotation_l	knee_angle_l	socket_flexion	socket_adduction	socket_rotation	socket_tx	socket_ty	socket_tz	foot_flex	lumbar_extension	lumbar_bending	lumbar_rotation
      0.31666667	      1.03852344	     -0.46061726	     -3.63024644	     -0.45645630	      1.03050277	      0.29726101	     15.18303848	      0.94770397	     -1.48238169	    -65.28614621	     10.08875351	    -13.89916008	     -4.25043641	     -5.64728999	      1.80701131	      9.98481179	      2.93214145	      0.54299632	      0.00000000	      0.00000000	      0.00000000	      0.00000000	      0.00000000	     -0.30545165	    -11.10239574	     -3.55120652	      3.85049785
      0.32083333	      1.08120699	     -0.47572433	     -3.54919403	     -0.45127998	      1.03094047	      0.29720110	     15.71297146	      0.97549468	     -1.50943856	    -64.94102510	     10.14734076	    -13.86302619	     -4.24279704	     -6.01814258	      1.81205094	     10.00643531	      2.90844664	      0.46822176	      0.00000000	      0.00000000	      0.00000000	      0.00000000	      0.00000000	     -0.29677861	    -11.18174354	     -3.54358828	      3.82943004
      0.32500000	      1.11593519	     -0.51430269	     -3.46272351	     -0.44612767	      1.03132181	      0.29712867	     16.23445565	      1.02258301	     -1.55026522	    -64.55428561	     10.25527981	    -13.81168567	     -4.22451992	     -6.38015440	      1.78914845	     10.03664912	      2.89482043	      0.40175216	      0.00000000	      0.00000000	      0.00000000	      0.00000000	      0.00000000	     -0.25971464	    -11.25769201	     -3.49901808	      3.80302410
      0.32916667	      1.31514465	     -1.27591858	     -2.84225137	     -0.43971993	      1.03214933	      0.29606125	     16.12280584	      1.62771573	     -2.32813657	    -63.60964643	     11.42087024	    -12.35434187	     -4.22986056	     -7.51685392	      0.81784187	     10.73179324	      4.36854464	      1.24633068	      0.00000000	      0.00000000	      0.00000000	      0.00000000	      0.00000000	     -0.08769640	    -11.40842075	     -2.39619172	      2.85254063
      0.33333333	      1.35390512	     -1.28110184	     -2.79131932	     -0.43466250	      1.03244302	      0.29604331	     16.65163181	      1.63459603	     -2.35186574	    -63.20382646	     11.49448103	    -12.35942677	     -4.22630488	     -7.86870912	      0.83252299	     10.73439235	      4.32983552	      1.16479754	      0.00000000	      0.00000000	      0.00000000	      0.00000000	      0.00000000	     -0.04607140	    -11.50848019	     -2.38722711	      2.85218494
      0.33750000	      1.38642644	     -1.72030507	     -2.52634235	     -0.42904666	      1.03299375	      0.29572269	     16.91203510	      2.10770189	     -2.58022941	    -62.38560029	     12.15524181	    -12.16160909	     -4.21612577	     -8.33631778	      0.32207789	     10.88634584	      4.52060851	      1.21835497	      0.00000000	      0.00000000	      0.00000000	      0.00000000	      0.00000000	      0.14757941	    -11.51433531	     -1.81554864	      2.79746468
      0.34166667	      1.81003226	     -2.09323228	     -2.29951043	     -0.42345921	      1.03384952	      0.29539970	     16.77605061	      2.43404513	     -2.85546377	    -61.59674600	     12.57732231	    -11.86272603	     -4.94706279	     -9.47606179	     -0.13952929	     11.05107830	      5.43319495	      1.69879044	      0.00000000	      0.00000000	      0.00000000	      0.00000000	      0.00000000	      0.22181416	    -11.98819381	     -1.32712425	      2.47442129
      0.34583333	      1.81222097	     -2.13604699	     -2.19773042	     -0.41824994	      1.03407943	      0.29533861	     17.23402716	      2.47825537	     -2.91571661	    -60.97195625	     12.74050837	    -11.85190917	     -4.95507477	     -9.79484284	     -0.17713570	     11.06236890	      5.40216363	      1.64241313	      0.00000000	      0.00000000	      0.00000000	      0.00000000	      0.00000000	      0.32926100	    -12.00474670	     -1.27803763	      2.47310108
      0.35000000	      1.78116819	     -2.50998713	     -1.90305552	     -0.41275690	      1.03436303	      0.29495003	     17.57954899	      2.82508062	     -3.23563855	    -60.13467848	     13.17390136	    -11.71479219	     -5.05071802	    -10.16233468	     -0.64291290	     11.31175738	      5.57136271	      1.67183621	      0.00000000	      0.00000000	      0.00000000	      0.00000000	      0.00000000	      0.46376948	    -11.94502624	     -0.76808596	      2.33192842
      0.35416667	      1.79617706	     -2.50389358	     -1.80203892	     -0.40762474	      1.03455619	      0.29490498	     18.00231079	      2.80439185	     -3.29003916	    -59.44413798	     13.28664912	    -11.72353678	     -5.07325507	    -10.49241140	     -0.62713680	     11.29871006	      5.57464428	      1.66254578	      0.00000000	      0.00000000	      0.00000000	      0.00000000	      0.00000000	      0.54914767	    -11.98630325	     -0.77232326	      2.29078674
      0.35833333	      1.86999699	     -2.93694801	     -1.41263806	     -0.40202161	      1.03493730	      0.29436481	     18.15546377	      3.16505498	     -3.74263716	    -58.43541105	     13.62722247	    -11.68309269	     -5.37709422	    -11.05812925	     -1.19450385	     11.64913013	      6.00179140	      1.85529080	      0.00000000	      0.00000000	      0.00000000	      0.00000000	      0.00000000	      0.66662862	    -12.02966634	     -0.16304451	      1.88353946
      0.36250000	      1.89068126	     -2.92428780	     -1.34001693	     -0.39691806	      1.03504758	      0.29438313	     18.55318558	      3.13170953	     -3.80541335	    -57.69732257	     13.77268347	    -11.73099595	     -5.40878268	    -11.39520689	     -1.17375348	     11.62551430	      6.00384241	      1.83970624	      0.00000000	      0.00000000	      0.00000000	      0.00000000	      0.00000000	      0.78264255	    -12.06569297	     -0.17451478	      1.85286374
      0.36666667	      2.01589054	     -3.31125212	     -0.99117997	     -0.39146466	      1.03541047	      0.29395435	     18.64582778	      3.45937046	     -4.20479467	    -56.64283396	     14.05058527	    -11.90015918	     -5.87055765	    -11.99063735	     -1.68561043	     11.89910412	      6.39209740	      2.01797774	      0.00000000	      0.00000000	      0.00000000	      0.00000000	      0.00000000	      0.91841808	    -12.18407617	      0.37643669	      1.50018749
      0.37083333	      2.06736829	     -3.48029997	     -0.79764385	     -0.38618337	      1.03558685	      0.29379376	     18.88421732	      3.60371070	     -4.39752488	    -55.68702176	     14.36281273	    -12.08587419	     -6.15750921	    -12.40597587	     -1.90855894	     11.99766218	      6.50494064	      2.04963621	      0.00000000	      0.00000000	      0.00000000	      0.00000000	      0.00000000	      1.05492488	    -12.24455600	      0.59880337	      1.40133793
      0.37500000	      2.07460683	     -3.43782997	     -0.72663492	     -0.38119674	      1.03561479	      0.29382426	     19.25443485	      3.53309183	     -4.46183121	    -54.83240258	     14.46067868	    -12.13932166	     -6.20953256	    -12.67843140	     -1.84953818	     11.97256032	      6.38478505	      1.95539876	      0.00000000	      0.00000000	      0.00000000	      0.00000000	      0.00000000	      1.15073431	    -12.27977811	      0.55297598	      1.37387922
      0.37916667	      2.28004344	     -3.84877323	     -0.41103771	     -0.37577746	      1.03601058	      0.29350514	     19.19716709	      3.91889146	     -4.81209124	    -53.61476163	     14.65732822	    -12.63010606	     -7.28041910	    -13.42294325	     -2.40768568	     12.19294050	      6.96001451	      2.25848240	      0.00000000	      0.00000000	      0.00000000	      0.00000000	      0.00000000	      1.24703143	    -12.49824897	      1.12171967	      0.94946957
